<svg width="48" height="48" viewBox="0 0 48 48" fill="none" xmlns="http://www.w3.org/2000/svg">
<path d="M13.2321 26.9554L13.2329 26.955L13.2267 26.9475C11.0497 24.3447 9.7328 20.9529 9.7328 17.2431C9.7328 9.03883 16.1722 2.39065 24.1122 2.39065C32.0522 2.39065 38.4917 9.03874 38.4917 17.2431C38.4917 20.9529 37.1748 24.3447 34.9979 26.9475L34.9974 26.947L34.9932 26.9541L31.6161 32.6754L31.616 32.6753L31.6143 32.6788C31.566 32.7771 31.5193 32.8733 31.4736 32.9672C31.1751 33.5808 30.9236 34.0979 30.6113 34.4777C30.2552 34.9108 29.822 35.1626 29.1475 35.1626H18.8561C18.5169 35.1626 18.2466 35.1021 18.0189 34.9899C17.7912 34.8777 17.6031 34.7121 17.4303 34.4977C17.2571 34.2828 17.1002 34.0198 16.9343 33.7134C16.8547 33.5663 16.7734 33.4099 16.6873 33.2443L16.6767 33.2239C16.5867 33.0509 16.4916 32.8682 16.3884 32.6771L16.3882 32.6767L13.2321 26.9554Z" fill="#FFF384" fill-opacity="0.8" stroke="black" stroke-width="0.1"/>
<path d="M22.1442 40.7023L22.1268 40.6054H18.5529C17.9617 40.6054 17.4779 40.1216 17.4779 39.5304V38.8782C17.4779 38.2871 17.9617 37.8032 18.5529 37.8032H29.6186C30.2098 37.8032 30.6936 38.2871 30.6936 38.8782V39.5304C30.6936 40.1216 30.2098 40.6054 29.6186 40.6054H26.1216L26.1038 40.7022C26.6176 40.898 27.1395 41.2288 27.5323 41.6447C27.9252 42.0608 28.1855 42.5581 28.1855 43.0879V43.5096C28.0861 43.6386 27.9887 43.7669 27.8926 43.8934C27.4906 44.4225 27.1124 44.9203 26.7213 45.3109C26.2339 45.7977 25.735 46.1092 25.1571 46.1092H23.1049C22.367 46.1092 21.801 45.7035 21.309 45.1695C21.0631 44.9026 20.8373 44.6055 20.6186 44.3135C20.6013 44.2905 20.5841 44.2675 20.567 44.2446C20.3712 43.983 20.1801 43.7276 19.9859 43.5077V43.0879C19.9859 42.5589 20.2583 42.0618 20.6674 41.6454C21.0762 41.2293 21.6175 40.8983 22.1442 40.7023Z" fill="#E9F1FF" stroke="black" stroke-width="0.1"/>
<path d="M30.4131 37.7032H17.7584C17.1673 37.7032 16.6834 37.2194 16.6834 36.6282V35.976C16.6834 35.3849 17.1673 34.901 17.7584 34.901H30.4131C31.0042 34.901 31.4881 35.3849 31.4881 35.976V36.6282C31.4881 37.2194 31.0042 37.7032 30.4131 37.7032ZM29.7062 41.7805V42.4327C29.7062 43.0239 29.2223 43.5077 28.6312 43.5077H19.5403C18.9492 43.5077 18.4653 43.0239 18.4653 42.4327V41.7805C18.4653 41.1894 18.9492 40.7055 19.5403 40.7055H28.6312C29.2223 40.7055 29.7062 41.1894 29.7062 41.7805Z" fill="#E9F1FF" stroke="black" stroke-width="0.1"/>
<path d="M22 17.5262L22.082 17.4893C22.3385 17.3713 22.6263 17.3235 22.9113 17.3515C23.1964 17.3794 23.4668 17.4821 23.6905 17.6472C23.9142 17.8123 24.0818 18.0331 24.1735 18.2832C24.2653 18.5334 24.2772 18.8025 24.208 19.0588L22.792 24.2828C22.7223 24.5392 22.7339 24.8086 22.8254 25.059C22.9169 25.3095 23.0845 25.5306 23.3083 25.696C23.5321 25.8614 23.8027 25.9642 24.088 25.9922C24.3733 26.0202 24.6614 25.9723 24.918 25.8541L25 25.8154M23.5 12H23.516V12.0147H23.5V12Z" stroke="#003114" stroke-width="1.5" stroke-linecap="round" stroke-linejoin="round"/>
</svg>
